<svg xmlns="http://www.w3.org/2000/svg" xmlns:xlink="http://www.w3.org/1999/xlink" viewBox="0 0 786 575.85"><defs><style>.cls-1{isolation:isolate;}.cls-2,.cls-3{mix-blend-mode:multiply;}.cls-2{fill:url(#radial-gradient);}.cls-3{fill:url(#radial-gradient-2);}.cls-4{fill:url(#linear-gradient);}.cls-5{fill:url(#linear-gradient-2);}.cls-6{fill:url(#linear-gradient-3);}.cls-7{fill:url(#linear-gradient-4);}.cls-8{fill:url(#linear-gradient-5);}.cls-9{fill:#818386;}.cls-10{fill:url(#linear-gradient-7);}.cls-11{fill:url(#linear-gradient-8);}.cls-12{fill:url(#linear-gradient-9);}.cls-13{fill:url(#linear-gradient-10);}.cls-14{fill:url(#linear-gradient-11);}.cls-15{fill:#2b424c;}.cls-16{fill:#1d323b;}.cls-17{fill:url(#linear-gradient-12);}.cls-18{fill:url(#linear-gradient-13);}.cls-19{fill:url(#linear-gradient-14);}.cls-20{fill:url(#linear-gradient-15);}.cls-21{fill:url(#linear-gradient-16);}.cls-22{fill:url(#linear-gradient-17);}.cls-23{fill:url(#linear-gradient-18);}.cls-24{fill:url(#linear-gradient-19);}.cls-25{fill:url(#linear-gradient-20);}.cls-26,.cls-56{fill:#231f20;}.cls-26,.cls-55{opacity:0.3;mix-blend-mode:overlay;}.cls-27{fill:url(#linear-gradient-21);}.cls-28{fill:url(#linear-gradient-22);}.cls-29{fill:url(#linear-gradient-23);}.cls-30{fill:url(#linear-gradient-24);}.cls-31{fill:url(#linear-gradient-25);}.cls-32{fill:url(#linear-gradient-26);}.cls-33{fill:url(#linear-gradient-27);}.cls-34{fill:url(#linear-gradient-28);}.cls-35{fill:url(#linear-gradient-29);}.cls-36{fill:url(#linear-gradient-30);}.cls-37{fill:url(#linear-gradient-31);}.cls-38{fill:url(#linear-gradient-32);}.cls-39{fill:url(#linear-gradient-33);}.cls-40{fill:url(#linear-gradient-34);}.cls-41{fill:url(#linear-gradient-35);}.cls-42{fill:url(#linear-gradient-36);}.cls-43{fill:url(#linear-gradient-37);}.cls-44{fill:url(#linear-gradient-38);}.cls-45{fill:url(#linear-gradient-39);}.cls-46{fill:url(#linear-gradient-40);}.cls-47{fill:url(#linear-gradient-41);}.cls-48{fill:url(#linear-gradient-42);}.cls-49{fill:url(#linear-gradient-43);}.cls-50{fill:url(#linear-gradient-44);}.cls-51{fill:url(#linear-gradient-45);}.cls-52{fill:url(#linear-gradient-46);}.cls-53{fill:url(#linear-gradient-47);}.cls-54{fill:url(#linear-gradient-48);}.cls-57{fill:url(#linear-gradient-49);}.cls-58{fill:url(#linear-gradient-50);}.cls-59{fill:url(#linear-gradient-51);}</style><radialGradient id="radial-gradient" cx="731.77" cy="562.03" r="206.99" gradientTransform="translate(-996.33 267.47) scale(1.9 0.4)" gradientUnits="userSpaceOnUse"><stop offset="0"/><stop offset="0.04" stop-color="#151515"/><stop offset="0.15" stop-color="#4b4b4b"/><stop offset="0.26" stop-color="#7b7b7b"/><stop offset="0.37" stop-color="#a4a4a4"/><stop offset="0.49" stop-color="#c5c5c5"/><stop offset="0.61" stop-color="#dedede"/><stop offset="0.73" stop-color="#f1f1f1"/><stop offset="0.86" stop-color="#fbfbfb"/><stop offset="1" stop-color="#fff"/></radialGradient><radialGradient id="radial-gradient-2" cx="731.77" cy="134.81" r="207.03" gradientTransform="translate(-996.33 497.89) scale(1.9 0.12)" xlink:href="#radial-gradient"/><linearGradient id="linear-gradient" x1="392.98" y1="466.43" x2="392.98" y2="504.45" gradientUnits="userSpaceOnUse"><stop offset="0" stop-color="#3a5560"/><stop offset="0.29" stop-color="#344e59"/><stop offset="0.73" stop-color="#243c45"/><stop offset="1" stop-color="#172d35"/></linearGradient><linearGradient id="linear-gradient-2" x1="392.98" y1="496.1" x2="392.98" y2="540.81" gradientUnits="userSpaceOnUse"><stop offset="0" stop-color="#fff"/><stop offset="0.4" stop-color="#e2e3e4"/><stop offset="1" stop-color="#afb1b4"/></linearGradient><linearGradient id="linear-gradient-3" x1="392.46" y1="227.85" x2="392.46" y2="17.79" xlink:href="#linear-gradient-2"/><linearGradient id="linear-gradient-4" x1="392.46" y1="-14.84" x2="392.46" y2="161.83" xlink:href="#linear-gradient"/><linearGradient id="linear-gradient-5" x1="392.46" y1="-10.84" x2="392.46" y2="114.58" xlink:href="#linear-gradient-2"/><linearGradient id="linear-gradient-7" x1="290.08" y1="130.21" x2="290.08" y2="214.67" xlink:href="#linear-gradient"/><linearGradient id="linear-gradient-8" x1="354.5" y1="130.21" x2="354.5" y2="214.67" xlink:href="#linear-gradient"/><linearGradient id="linear-gradient-9" x1="423.78" y1="130.21" x2="423.78" y2="214.67" xlink:href="#linear-gradient"/><linearGradient id="linear-gradient-10" x1="498.74" y1="130.21" x2="498.74" y2="214.67" xlink:href="#linear-gradient"/><linearGradient id="linear-gradient-11" x1="392.95" y1="267.84" x2="392.95" y2="470.64" xlink:href="#linear-gradient"/><linearGradient id="linear-gradient-12" x1="392.98" y1="438.43" x2="392.98" y2="473.77" xlink:href="#linear-gradient"/><linearGradient id="linear-gradient-13" x1="183.36" y1="350.85" x2="219.08" y2="350.85" xlink:href="#linear-gradient-2"/><linearGradient id="linear-gradient-14" x1="211.88" y1="350.85" x2="216.32" y2="350.85" xlink:href="#linear-gradient-2"/><linearGradient id="linear-gradient-15" x1="205.53" y1="350.85" x2="209.5" y2="350.85" xlink:href="#linear-gradient-2"/><linearGradient id="linear-gradient-16" x1="199.12" y1="350.85" x2="203.63" y2="350.85" xlink:href="#linear-gradient-2"/><linearGradient id="linear-gradient-17" x1="192.84" y1="350.85" x2="197.69" y2="350.85" xlink:href="#linear-gradient-2"/><linearGradient id="linear-gradient-18" x1="186.61" y1="350.85" x2="192" y2="350.85" xlink:href="#linear-gradient-2"/><linearGradient id="linear-gradient-19" x1="174.11" y1="244.46" x2="228.33" y2="244.46" gradientUnits="userSpaceOnUse"><stop offset="0" stop-color="#eceded"/><stop offset="0.36" stop-color="#c3c5c7"/><stop offset="0.52" stop-color="#afb1b4"/><stop offset="0.65" stop-color="#a8aaad"/><stop offset="0.84" stop-color="#94979a"/><stop offset="1" stop-color="#7f8285"/></linearGradient><linearGradient id="linear-gradient-20" x1="174.11" y1="456.11" x2="228.33" y2="456.11" xlink:href="#linear-gradient-19"/><linearGradient id="linear-gradient-21" x1="243.36" y1="350.85" x2="279.08" y2="350.85" xlink:href="#linear-gradient-2"/><linearGradient id="linear-gradient-22" x1="271.88" y1="350.85" x2="276.32" y2="350.85" xlink:href="#linear-gradient-2"/><linearGradient id="linear-gradient-23" x1="265.53" y1="350.85" x2="269.5" y2="350.85" xlink:href="#linear-gradient-2"/><linearGradient id="linear-gradient-24" x1="259.12" y1="350.85" x2="263.63" y2="350.85" xlink:href="#linear-gradient-2"/><linearGradient id="linear-gradient-25" x1="252.84" y1="350.85" x2="257.69" y2="350.85" xlink:href="#linear-gradient-2"/><linearGradient id="linear-gradient-26" x1="246.61" y1="350.85" x2="252" y2="350.85" xlink:href="#linear-gradient-2"/><linearGradient id="linear-gradient-27" x1="234.11" y1="244.46" x2="288.33" y2="244.46" xlink:href="#linear-gradient-19"/><linearGradient id="linear-gradient-28" x1="234.11" y1="456.11" x2="288.33" y2="456.11" xlink:href="#linear-gradient-19"/><linearGradient id="linear-gradient-29" x1="500.03" y1="350.85" x2="535.74" y2="350.85" xlink:href="#linear-gradient-2"/><linearGradient id="linear-gradient-30" x1="528.55" y1="350.85" x2="532.99" y2="350.85" xlink:href="#linear-gradient-2"/><linearGradient id="linear-gradient-31" x1="522.2" y1="350.85" x2="526.17" y2="350.85" xlink:href="#linear-gradient-2"/><linearGradient id="linear-gradient-32" x1="515.79" y1="350.85" x2="520.29" y2="350.85" xlink:href="#linear-gradient-2"/><linearGradient id="linear-gradient-33" x1="509.5" y1="350.85" x2="514.35" y2="350.85" xlink:href="#linear-gradient-2"/><linearGradient id="linear-gradient-34" x1="503.28" y1="350.85" x2="508.67" y2="350.85" xlink:href="#linear-gradient-2"/><linearGradient id="linear-gradient-35" x1="490.78" y1="244.46" x2="545" y2="244.46" xlink:href="#linear-gradient-19"/><linearGradient id="linear-gradient-36" x1="490.78" y1="456.11" x2="545" y2="456.11" xlink:href="#linear-gradient-19"/><linearGradient id="linear-gradient-37" x1="560.03" y1="350.85" x2="595.74" y2="350.85" xlink:href="#linear-gradient-2"/><linearGradient id="linear-gradient-38" x1="588.55" y1="350.85" x2="592.99" y2="350.85" xlink:href="#linear-gradient-2"/><linearGradient id="linear-gradient-39" x1="582.2" y1="350.85" x2="586.17" y2="350.85" xlink:href="#linear-gradient-2"/><linearGradient id="linear-gradient-40" x1="575.79" y1="350.85" x2="580.29" y2="350.85" xlink:href="#linear-gradient-2"/><linearGradient id="linear-gradient-41" x1="569.5" y1="350.85" x2="574.36" y2="350.85" xlink:href="#linear-gradient-2"/><linearGradient id="linear-gradient-42" x1="563.28" y1="350.85" x2="568.67" y2="350.85" xlink:href="#linear-gradient-2"/><linearGradient id="linear-gradient-43" x1="550.78" y1="244.46" x2="605" y2="244.46" xlink:href="#linear-gradient-19"/><linearGradient id="linear-gradient-44" x1="550.78" y1="456.11" x2="605" y2="456.11" xlink:href="#linear-gradient-19"/><linearGradient id="linear-gradient-45" x1="392.98" y1="187.85" x2="392.98" y2="246.52" xlink:href="#linear-gradient-2"/><linearGradient id="linear-gradient-46" x1="392.98" y1="460.76" x2="392.98" y2="506.78" xlink:href="#linear-gradient-2"/><linearGradient id="linear-gradient-47" x1="392.98" y1="191.35" x2="392.98" y2="240.59" xlink:href="#linear-gradient-19"/><linearGradient id="linear-gradient-48" x1="392.98" y1="192.35" x2="392.98" y2="245.9" xlink:href="#linear-gradient"/><linearGradient id="linear-gradient-49" x1="388.92" y1="291.85" x2="388.92" y2="419.99" gradientUnits="userSpaceOnUse"><stop offset="0" stop-color="#f2d76b"/><stop offset="0.53" stop-color="#efaf1e"/><stop offset="0.64" stop-color="#eea81f"/><stop offset="0.81" stop-color="#eb9421"/><stop offset="1" stop-color="#e77725"/></linearGradient><linearGradient id="linear-gradient-50" x1="318.4" y1="291.85" x2="318.4" y2="419.99" xlink:href="#linear-gradient-49"/><linearGradient id="linear-gradient-51" x1="462.48" y1="291.85" x2="462.48" y2="419.99" xlink:href="#linear-gradient-49"/></defs><title>Asset 1</title><g class="cls-1"><g id="Layer_2" data-name="Layer 2"><g id="Object"><ellipse class="cls-2" cx="393" cy="492.85" rx="393" ry="83"/><ellipse class="cls-3" cx="393" cy="513.51" rx="393" ry="24"/><polygon class="cls-4" points="677.23 500.54 108.73 500.54 141.25 483.96 644.57 484.11 677.23 500.54"/><rect class="cls-5" x="108.74" y="500.54" width="568.49" height="22.08"/><polygon class="cls-6" points="597.92 213.08 597.92 109.66 391.24 22.01 187 109.66 187 213.08 597.92 213.08"/><polygon class="cls-7" points="391.19 6.66 176.48 113.75 176.48 129.14 391.24 22.01 608.44 128.29 608.44 112.96 391.19 6.66"/><polygon class="cls-8" points="391.16 0 172.59 109.03 172.59 116.28 391.22 7.22 612.34 115.42 612.34 108.22 391.16 0"/><polygon class="cls-9" points="187 127.93 187 135.18 391.22 33.32 597.92 134.46 597.92 127.26 391.16 26.09 187 127.93"/><polygon class="cls-8" points="391.16 21.18 172.59 130.21 172.59 137.46 391.22 28.41 612.34 136.6 612.34 129.4 391.16 21.18"/><path class="cls-10" d="M261.57,137.46h35.69q8.92,0,13.7,4.42a14.31,14.31,0,0,1,4.78,10.94,13.79,13.79,0,0,1-3.41,9.38,15.2,15.2,0,0,1-6.65,4.13q6.65,1.6,9.78,5.49a15.12,15.12,0,0,1,3.14,9.79,16.92,16.92,0,0,1-2.23,8.63,16.45,16.45,0,0,1-6.11,6.06,20.17,20.17,0,0,1-7.24,2,83.38,83.38,0,0,1-8.54.84H261.57Zm19.23,24.2h8.29q4.47,0,6.21-1.54a5.57,5.57,0,0,0,1.75-4.44,5.26,5.26,0,0,0-1.75-4.21q-1.74-1.51-6.08-1.51H280.8Zm0,24.24h9.73q4.92,0,6.94-1.75a5.86,5.86,0,0,0,2-4.69,5.46,5.46,0,0,0-2-4.4q-2-1.67-7-1.66H280.8Z"/><path class="cls-11" d="M365,189H343.39l-3,10.19H320.91l23.19-61.7h20.8l23.19,61.7h-20Zm-4-13.34-6.81-22.18-6.74,22.18Z"/><path class="cls-12" d="M394.28,137.46h17.8l23.23,34.13V137.46h18v61.7h-18l-23.1-33.88v33.88H394.28Z"/><path class="cls-13" d="M466,137.46h19.07v23.31l20-23.31h25.36l-22.52,23.29,23.53,38.41H508l-13-25.38-9.85,10.32v15.06H466Z"/><rect class="cls-14" x="166.86" y="227.04" width="452.17" height="247.25"/><polygon class="cls-15" points="648.34 231.66 619.07 229.5 619.07 227.1 166.9 226.97 166.9 229.5 137.62 231.66 166.89 247.14 166.89 261.63 619.06 261.76 619.07 247.14 648.34 231.66"/><polygon class="cls-16" points="621.21 246.01 648.34 231.66 619.07 229.5 619.07 227.1 166.9 226.97 166.9 229.5 137.62 231.66 164.75 246.01 621.21 246.01"/><polygon class="cls-17" points="648.34 469.33 137.62 469.33 166.83 454.44 619 454.57 648.34 469.33"/><rect class="cls-18" x="183.36" y="245.4" width="35.71" height="210.9"/><rect class="cls-19" x="212.5" y="245.4" width="3.15" height="210.9"/><rect class="cls-20" x="206.03" y="245.4" width="3.16" height="210.9"/><rect class="cls-21" x="199.56" y="245.4" width="3.15" height="210.9"/><rect class="cls-22" x="193.09" y="245.4" width="3.16" height="210.9"/><rect class="cls-23" x="186.61" y="245.4" width="3.15" height="210.9"/><rect class="cls-24" x="174.11" y="237.92" width="54.22" height="13.09"/><rect class="cls-25" x="174.11" y="449.57" width="54.22" height="13.09"/><polygon class="cls-26" points="297.33 251.01 297.33 237.92 243.11 237.92 243.11 251.01 252.36 251.01 252.36 449.57 243.11 449.57 243.11 462.66 297.33 462.66 297.33 449.57 288.08 449.57 288.08 251.01 297.33 251.01"/><polygon class="cls-26" points="535.33 251.01 535.33 237.92 481.11 237.92 481.11 251.01 490.36 251.01 490.36 449.57 481.11 449.57 481.11 462.66 535.33 462.66 535.33 449.57 526.08 449.57 526.08 251.01 535.33 251.01"/><polygon class="cls-26" points="589.83 251.01 589.83 237.92 535.61 237.92 535.61 251.01 544.86 251.01 544.86 449.57 535.61 449.57 535.61 462.66 589.83 462.66 589.83 449.57 580.58 449.57 580.58 251.01 589.83 251.01"/><polygon class="cls-26" points="246.33 251.01 246.33 237.92 192.11 237.92 192.11 251.01 201.36 251.01 201.36 449.57 192.11 449.57 192.11 462.66 246.33 462.66 246.33 449.57 237.08 449.57 237.08 251.01 246.33 251.01"/><rect class="cls-27" x="243.36" y="245.4" width="35.71" height="210.9"/><rect class="cls-28" x="272.5" y="245.4" width="3.15" height="210.9"/><rect class="cls-29" x="266.03" y="245.4" width="3.16" height="210.9"/><rect class="cls-30" x="259.56" y="245.4" width="3.15" height="210.9"/><rect class="cls-31" x="253.09" y="245.4" width="3.16" height="210.9"/><rect class="cls-32" x="246.61" y="245.4" width="3.15" height="210.9"/><rect class="cls-33" x="234.11" y="237.92" width="54.22" height="13.09"/><rect class="cls-34" x="234.11" y="449.57" width="54.22" height="13.09"/><rect class="cls-35" x="500.03" y="245.4" width="35.71" height="210.9"/><rect class="cls-36" x="529.17" y="245.4" width="3.16" height="210.9"/><rect class="cls-37" x="522.7" y="245.4" width="3.16" height="210.9"/><rect class="cls-38" x="516.22" y="245.4" width="3.16" height="210.9"/><rect class="cls-39" x="509.75" y="245.4" width="3.16" height="210.9"/><rect class="cls-40" x="503.28" y="245.4" width="3.15" height="210.9"/><rect class="cls-41" x="490.78" y="237.92" width="54.22" height="13.09"/><rect class="cls-42" x="490.78" y="449.57" width="54.22" height="13.09"/><rect class="cls-43" x="560.03" y="245.4" width="35.71" height="210.9"/><rect class="cls-44" x="589.17" y="245.4" width="3.15" height="210.9"/><rect class="cls-45" x="582.7" y="245.4" width="3.16" height="210.9"/><rect class="cls-46" x="576.23" y="245.4" width="3.16" height="210.9"/><rect class="cls-47" x="569.75" y="245.4" width="3.16" height="210.9"/><rect class="cls-48" x="563.28" y="245.4" width="3.16" height="210.9"/><rect class="cls-49" x="550.78" y="237.92" width="54.22" height="13.09"/><rect class="cls-50" x="550.78" y="449.57" width="54.22" height="13.09"/><rect class="cls-51" x="137.62" y="198.54" width="510.72" height="33.12"/><rect class="cls-52" x="137.62" y="469.33" width="510.72" height="19.83"/><rect class="cls-53" x="137.62" y="204.57" width="510.72" height="21.05"/><rect class="cls-54" x="137.62" y="208.66" width="510.72" height="12.87"/><g class="cls-55"><path class="cls-56" d="M416.79,328.84,398.9,332a22.65,22.65,0,0,0-2.43-5.31,12.23,12.23,0,0,0-3.59-3v15.61q14.63,4.38,19.53,9.24,6.49,6.54,6.5,16.58a25,25,0,0,1-2.33,10.8,26,26,0,0,1-6,8.21,23.26,23.26,0,0,1-7.72,4.78,34.13,34.13,0,0,1-10,1.75v10.2h-7v-10.2a39.89,39.89,0,0,1-11.47-2.56,23,23,0,0,1-7.6-5.15,25.11,25.11,0,0,1-4.93-7.1,36,36,0,0,1-2.6-9.2l19.43-2.54a22.23,22.23,0,0,0,2.34,7.72,12.57,12.57,0,0,0,4.83,4.21V357q-9.72-3-13.78-5.24a19.18,19.18,0,0,1-7.05-7.1,22.45,22.45,0,0,1-3-11.91,22.75,22.75,0,0,1,6-16.07q6-6.45,17.82-7.15v-5.34h7v5.34q10.78.75,16.48,5.72T416.79,328.84Zm-30.93-5.4a8.92,8.92,0,0,0-4.28,2.82,6.63,6.63,0,0,0-1.2,4,7.08,7.08,0,0,0,1.22,4.15,9,9,0,0,0,4.26,2.95Zm7,53.16a10.79,10.79,0,0,0,6-3.39,8.15,8.15,0,0,0,1.9-5.27,7.65,7.65,0,0,0-1.6-4.69c-1.07-1.42-3.17-2.75-6.29-4Z"/><path class="cls-56" d="M347.86,334l-14,2.49a17.73,17.73,0,0,0-1.89-4.15,9.75,9.75,0,0,0-2.8-2.34v12.19q11.42,3.42,15.24,7.21a17.61,17.61,0,0,1,5.07,12.95,19.34,19.34,0,0,1-1.82,8.43,20.21,20.21,0,0,1-4.65,6.41,18.43,18.43,0,0,1-6,3.73,26.69,26.69,0,0,1-7.81,1.37v8h-5.49v-8a31.74,31.74,0,0,1-8.95-2,17.77,17.77,0,0,1-5.93-4,19.43,19.43,0,0,1-3.85-5.54,27.76,27.76,0,0,1-2-7.18l15.17-2a17.35,17.35,0,0,0,1.82,6,9.78,9.78,0,0,0,3.77,3.29V356A65.26,65.26,0,0,1,313,351.92a15,15,0,0,1-5.51-5.54,17.58,17.58,0,0,1-2.32-9.3,17.76,17.76,0,0,1,4.67-12.54q4.68-5,13.91-5.59v-4.17h5.49V319c5.61.4,9.89,1.88,12.86,4.47A18.32,18.32,0,0,1,347.86,334Zm-24.15-4.21a7.06,7.06,0,0,0-3.34,2.2,5.23,5.23,0,0,0-.94,3.09,5.53,5.53,0,0,0,1,3.24,6.9,6.9,0,0,0,3.32,2.3Zm5.49,41.5a8.47,8.47,0,0,0,4.67-2.64,6.41,6.41,0,0,0,1.49-4.12,5.93,5.93,0,0,0-1.26-3.66,11.27,11.27,0,0,0-4.9-3.1Z"/><path class="cls-56" d="M476.28,334l-14,2.49a17.73,17.73,0,0,0-1.89-4.15,9.75,9.75,0,0,0-2.8-2.34v12.19q11.42,3.42,15.25,7.21a17.61,17.61,0,0,1,5.07,12.95,19.34,19.34,0,0,1-1.83,8.43,20.21,20.21,0,0,1-4.65,6.41,18.43,18.43,0,0,1-6,3.73,26.69,26.69,0,0,1-7.81,1.37v8h-5.48v-8a31.82,31.82,0,0,1-9-2,17.77,17.77,0,0,1-5.93-4,19.43,19.43,0,0,1-3.85-5.54,28.16,28.16,0,0,1-2-7.18l15.17-2a17.35,17.35,0,0,0,1.82,6,9.82,9.82,0,0,0,3.78,3.29V356a65.09,65.09,0,0,1-10.76-4.09,14.89,14.89,0,0,1-5.5-5.54,17.49,17.49,0,0,1-2.33-9.3,17.76,17.76,0,0,1,4.67-12.54q4.68-5,13.92-5.59v-4.17h5.48V319c5.61.4,9.9,1.88,12.86,4.47A18.32,18.32,0,0,1,476.28,334Zm-24.14-4.21a7,7,0,0,0-3.35,2.2,5.23,5.23,0,0,0-.93,3.09,5.52,5.52,0,0,0,.95,3.24,6.88,6.88,0,0,0,3.33,2.3Zm5.48,41.5a8.5,8.5,0,0,0,4.68-2.64,6.45,6.45,0,0,0,1.48-4.12,5.93,5.93,0,0,0-1.26-3.66c-.83-1.11-2.47-2.15-4.9-3.1Z"/></g><path class="cls-57" d="M420,324.17l-20.07,3.18A21.54,21.54,0,0,0,397.2,322a13.47,13.47,0,0,0-4-3v15.62q16.41,4.36,21.91,9.23a21.31,21.31,0,0,1,7.29,16.58,22.64,22.64,0,0,1-2.62,10.8,26.08,26.08,0,0,1-6.69,8.21,26.87,26.87,0,0,1-8.66,4.78A42.46,42.46,0,0,1,393.18,386v10.2H385.3V386a49.75,49.75,0,0,1-12.87-2.57,26.07,26.07,0,0,1-8.52-5.15,25.15,25.15,0,0,1-5.54-7.1,33.31,33.31,0,0,1-2.91-9.2l21.8-2.53q1,5.34,2.62,7.71a13.59,13.59,0,0,0,5.42,4.21V352.32q-10.89-3-15.46-5.24a20.64,20.64,0,0,1-11.25-19A21.36,21.36,0,0,1,365.31,312q6.72-6.45,20-7.16v-5.34h7.88v5.34q12.09.76,18.49,5.72A23,23,0,0,1,420,324.17Zm-34.7-5.4a10.14,10.14,0,0,0-4.8,2.83,6.1,6.1,0,0,0-1.35,3.95,6.56,6.56,0,0,0,1.37,4.15,10.09,10.09,0,0,0,4.78,2.95Zm7.88,53.16q4.59-1,6.72-3.38a7.68,7.68,0,0,0,2.13-5.28,7.09,7.09,0,0,0-1.8-4.68q-1.8-2.14-7.05-4Z"/><path class="cls-58" d="M342.67,329.37,327,331.85a17.16,17.16,0,0,0-2.13-4.15,10.56,10.56,0,0,0-3.14-2.34v12.19q12.81,3.42,17.11,7.21a16.64,16.64,0,0,1,5.68,12.95,17.69,17.69,0,0,1-2,8.43,20.55,20.55,0,0,1-5.22,6.41,21.11,21.11,0,0,1-6.76,3.73,33.28,33.28,0,0,1-8.77,1.37v8h-6.15v-8a38.53,38.53,0,0,1-10.05-2,20.15,20.15,0,0,1-6.65-4,19.59,19.59,0,0,1-4.32-5.53,26.21,26.21,0,0,1-2.28-7.19l17-2a16.1,16.1,0,0,0,2.05,6,10.59,10.59,0,0,0,4.23,3.28V351.34a79.23,79.23,0,0,1-12.07-4.08,16.12,16.12,0,0,1-8.78-14.85A16.67,16.67,0,0,1,300,319.87q5.25-5,15.61-5.59v-4.17h6.15v4.17q9.43.6,14.43,4.47A17.9,17.9,0,0,1,342.67,329.37Zm-27.09-4.22a7.9,7.9,0,0,0-3.75,2.21,4.78,4.78,0,0,0-1.05,3.09,5,5,0,0,0,1.07,3.23,7.87,7.87,0,0,0,3.73,2.31Zm6.15,41.5A9.71,9.71,0,0,0,327,364a6,6,0,0,0,1.66-4.12,5.58,5.58,0,0,0-1.41-3.66q-1.41-1.67-5.5-3.1Z"/><path class="cls-59" d="M486.75,329.37l-15.67,2.48A17.16,17.16,0,0,0,469,327.7a10.56,10.56,0,0,0-3.14-2.34v12.19q12.81,3.42,17.1,7.21a16.61,16.61,0,0,1,5.69,12.95,17.69,17.69,0,0,1-2,8.43,20.44,20.44,0,0,1-5.23,6.41,21,21,0,0,1-6.76,3.73,33.26,33.26,0,0,1-8.76,1.37v8h-6.15v-8a38.53,38.53,0,0,1-10.05-2,20.3,20.3,0,0,1-6.66-4,19.77,19.77,0,0,1-4.32-5.53,25.88,25.88,0,0,1-2.27-7.19l17-2a16.3,16.3,0,0,0,2,6,10.7,10.7,0,0,0,4.24,3.28V351.34a78.83,78.83,0,0,1-12.07-4.08,16.1,16.1,0,0,1-8.79-14.85,16.68,16.68,0,0,1,5.25-12.54q5.24-5,15.61-5.59v-4.17h6.15v4.17q9.44.6,14.43,4.47A17.9,17.9,0,0,1,486.75,329.37Zm-27.09-4.22a7.9,7.9,0,0,0-3.75,2.21,4.79,4.79,0,0,0-1.06,3.09,5.11,5.11,0,0,0,1.07,3.23,8,8,0,0,0,3.74,2.31Zm6.15,41.5a9.75,9.75,0,0,0,5.25-2.64,6,6,0,0,0,1.66-4.12,5.58,5.58,0,0,0-1.41-3.66q-1.41-1.67-5.5-3.1Z"/></g></g></g></svg>