<?xml version="1.0" standalone="no"?>
<!DOCTYPE svg PUBLIC "-//W3C//DTD SVG 20010904//EN"
 "http://www.w3.org/TR/2001/REC-SVG-20010904/DTD/svg10.dtd">
<svg version="1.0" xmlns="http://www.w3.org/2000/svg"
 width="562.000000pt" height="562.000000pt" viewBox="0 0 562.000000 562.000000"
 preserveAspectRatio="xMidYMid meet">
<metadata>
Created by potrace 1.11, written by Peter Selinger 2001-2013
</metadata>
<g transform="translate(0.000000,562.000000) scale(0.100000,-0.100000)"
fill="#000000" stroke="none">
<path d="M4370 5492 c-159 -218 -198 -310 -198 -471 0 -125 53 -287 117 -358
9 -10 41 -53 71 -96 30 -43 63 -87 73 -99 9 -12 17 -25 17 -30 0 -31 41 9 123
121 163 221 192 291 191 466 0 171 -29 240 -196 470 -46 62 -88 116 -95 119
-6 2 -52 -52 -103 -122z"/>
<path d="M3590 4680 c2 -170 13 -233 56 -329 42 -91 94 -156 188 -235 21 -18
395 -211 570 -294 4 -3 6 76 4 174 -4 158 -8 187 -30 251 -45 129 -125 236
-233 311 -35 23 -491 257 -538 275 -17 6 -18 -4 -17 -153z"/>
<path d="M5100 4708 c-146 -73 -276 -141 -290 -151 -57 -39 -144 -136 -178
-197 -63 -112 -80 -191 -81 -377 -2 -152 -1 -162 16 -156 50 19 504 253 543
280 116 80 218 231 245 363 8 39 19 315 13 349 -3 21 -21 14 -268 -111z"/>
<path d="M2347 4104 c-2 -2 -23 -6 -48 -9 -48 -6 -139 -22 -179 -31 -146 -34
-208 -53 -315 -97 -298 -121 -545 -292 -761 -528 -99 -108 -274 -362 -260
-377 4 -3 52 -7 107 -8 92 -1 101 1 111 20 59 113 306 380 432 468 17 12 33
25 36 28 3 3 28 20 55 38 28 17 55 35 60 39 6 5 35 21 65 37 30 16 69 37 85
46 88 48 289 120 405 145 113 24 143 29 255 40 62 6 254 6 310 0 108 -12 131
-15 165 -21 19 -3 40 -7 45 -9 47 -11 77 -18 120 -31 28 -8 61 -16 74 -19 14
-2 29 -9 35 -15 5 -5 18 -10 27 -10 15 0 99 -36 210 -89 23 -12 44 -20 45 -18
3 2 6 114 5 169 -1 35 -4 39 -56 63 -31 14 -58 25 -61 25 -3 0 -20 6 -37 14
-56 25 -227 77 -302 92 -11 2 -40 8 -65 13 -25 6 -67 13 -95 17 -52 7 -462 14
-468 8z"/>
<path d="M3592 3903 c4 -147 8 -189 26 -243 38 -117 117 -228 219 -307 25 -20
509 -269 556 -286 17 -6 18 3 16 141 -1 132 -4 171 -23 260 -10 48 -79 172
-124 224 -26 30 -67 69 -92 88 -36 28 -500 269 -564 293 -17 7 -18 -4 -14
-170z"/>
<path d="M5094 3946 c-298 -150 -332 -172 -421 -279 -34 -42 -91 -160 -110
-232 -9 -35 -16 -378 -7 -373 369 182 550 277 576 300 18 17 40 35 48 41 31
24 89 103 120 166 54 106 70 186 70 353 0 81 -3 149 -7 151 -5 2 -126 -55
-269 -127z"/>
<path d="M3591 3139 c1 -182 16 -257 72 -362 34 -64 170 -210 212 -228 6 -2
39 -20 75 -39 36 -19 67 -35 70 -35 13 -3 174 -86 186 -96 8 -6 14 -9 14 -6 0
3 37 -14 83 -37 l82 -42 0 -229 c1 -213 -1 -240 -27 -366 -52 -253 -128 -446
-258 -652 -78 -123 -135 -193 -255 -313 -198 -198 -388 -322 -658 -429 -77
-30 -304 -89 -387 -100 -100 -13 -402 -13 -485 0 -132 21 -163 26 -205 38 -14
4 -43 13 -65 19 -117 32 -301 109 -405 169 -206 119 -417 306 -554 489 -23 30
-44 57 -48 58 -5 2 -8 7 -8 12 0 5 -18 35 -39 68 -41 60 -133 238 -145 280 -4
12 -13 22 -19 23 -77 7 -187 2 -187 -8 0 -6 16 -49 35 -95 233 -549 677 -963
1235 -1153 74 -25 136 -45 138 -45 1 1 15 -1 30 -4 203 -44 251 -50 452 -50
151 -1 272 6 326 18 12 2 39 7 60 10 121 19 324 83 452 142 41 19 75 34 78 34
9 0 199 114 202 121 2 5 9 9 15 9 7 0 23 9 37 20 236 185 355 301 472 460 106
145 181 275 246 430 37 88 95 262 107 320 28 135 42 221 51 320 3 38 4 262 1
350 l-2 54 84 43 c47 24 90 43 97 43 7 0 14 4 16 8 2 4 65 38 140 74 207 101
279 155 354 268 78 118 101 210 103 412 1 76 -1 143 -4 147 -6 10 -486 -225
-552 -270 -147 -101 -241 -259 -259 -434 -9 -84 -15 -105 -37 -120 -30 -21
-52 -19 -81 8 -20 18 -25 34 -29 92 -13 167 -101 331 -236 435 -35 27 -498
268 -564 293 -17 6 -18 -5 -16 -154z"/>
<path d="M1261 2902 l-131 -3 2 -317 3 -317 155 -5 c213 -7 200 -11 200 60 l0
59 -117 3 -118 3 0 80 0 80 105 2 c58 1 111 2 118 2 8 1 12 19 12 56 0 37 -4
55 -12 56 -7 1 -60 2 -118 3 l-105 1 0 55 0 55 55 2 c30 2 83 3 118 3 l62 0 0
59 0 59 -48 4 c-27 1 -108 2 -181 0z"/>
<path d="M1648 2902 l-98 -3 0 -59 0 -59 58 -3 57 -3 0 -255 0 -255 63 -3 62
-3 1 248 c1 136 1 254 0 261 -1 8 16 12 59 12 l60 0 0 59 0 59 -82 4 c-46 2
-127 2 -180 0z"/>
<path d="M2000 2900 c-41 -3 -74 -8 -72 -12 1 -5 2 -30 2 -58 l0 -49 58 -3 57
-3 0 -255 0 -255 63 -3 62 -3 0 261 0 260 60 0 60 0 0 59 0 60 -107 3 c-60 2
-142 1 -183 -2z"/>
<path d="M2327 2902 c-14 -3 -6 -24 49 -130 37 -70 71 -133 77 -139 5 -7 7
-13 3 -13 -3 0 5 -18 19 -39 23 -37 25 -48 24 -168 0 -70 0 -134 0 -140 1 -9
20 -13 61 -13 50 0 60 3 60 18 1 9 2 76 3 147 2 100 6 136 18 155 9 14 51 92
93 173 l76 148 -66 -3 -66 -3 -56 -107 c-31 -60 -58 -108 -61 -108 -3 0 -31
48 -62 108 l-55 107 -50 5 c-27 3 -57 4 -67 2z"/>
<path d="M250 2575 l0 -327 153 4 c134 3 158 7 200 27 41 20 122 98 122 119 0
4 3 12 6 17 4 6 10 26 15 45 4 19 9 42 11 50 5 21 4 100 -2 129 -24 121 -96
213 -188 241 -23 7 -104 15 -179 18 l-138 4 0 -327z m310 167 c48 -39 72 -91
75 -165 2 -67 -14 -118 -48 -155 -34 -37 -66 -48 -144 -51 l-71 -3 -1 208 0
207 77 -7 c63 -5 83 -11 112 -34z"/>
<path d="M870 2580 l0 -320 60 0 60 0 0 320 0 320 -60 0 -60 0 0 -320z"/>
<path d="M3070 2882 c-47 -14 -82 -38 -102 -70 -31 -51 -30 -106 3 -170 l27
-54 -38 -39 c-49 -51 -74 -115 -68 -173 7 -56 32 -90 86 -117 55 -27 140 -21
213 16 l49 24 20 -21 c16 -18 32 -21 90 -22 38 -1 70 2 70 6 0 4 -8 15 -17 25
-10 10 -30 32 -46 49 l-27 30 30 31 30 30 -31 39 c-17 22 -32 41 -34 43 -2 2
-20 -10 -41 -27 l-36 -30 -31 36 c-17 21 -39 47 -50 58 -18 21 -18 22 1 40 81
79 103 160 59 224 -35 53 -109 87 -157 72z m54 -127 c18 -19 13 -53 -13 -78
-24 -25 -38 -16 -47 30 -5 29 -3 39 11 50 24 17 30 16 49 -2z m-5 -320 l42
-50 -41 -18 c-68 -30 -131 0 -112 53 11 31 45 71 57 68 7 -2 32 -25 54 -53z"/>
<path d="M2118 2122 c-27 -3 -28 -6 -28 -58 l0 -54 53 0 52 0 0 -232 0 -233
55 -3 55 -3 0 236 0 235 52 0 53 0 0 54 0 55 -132 3 c-73 2 -145 2 -160 0z"/>
<path d="M250 1830 l0 -290 55 0 c37 0 55 4 56 13 1 6 1 63 1 125 0 96 3 112
17 113 44 4 157 5 167 1 8 -2 12 -38 12 -105 0 -162 -6 -147 57 -147 l55 0 0
290 0 290 -55 0 c-63 0 -57 13 -57 -132 l0 -86 -97 1 -96 2 -2 90 c-1 50 -2
98 -2 108 -1 14 -11 17 -56 17 l-55 0 0 -290z"/>
<path d="M790 1830 l0 -289 78 -3 c42 -2 115 -2 162 0 l85 3 -3 55 -4 54 -104
0 -104 0 0 75 0 75 105 0 105 0 0 54 0 54 -102 -1 -103 -1 -3 52 -3 52 68 1
c37 0 85 1 106 1 l37 0 0 54 0 54 -160 0 -160 0 0 -290z"/>
<path d="M1310 1903 c-45 -120 -88 -231 -95 -248 -7 -16 -20 -49 -29 -72 l-16
-43 58 0 57 0 18 43 c9 23 17 47 17 54 0 18 27 23 140 23 l108 0 24 -60 23
-60 57 0 c62 0 63 1 48 28 -5 9 -34 82 -64 162 -30 80 -60 159 -67 175 -7 17
-13 32 -14 35 0 3 -16 44 -34 93 l-34 87 -57 0 -57 0 -83 -217z m215 -131 c-4
-5 -145 -7 -145 -1 0 8 20 70 30 94 5 11 16 38 25 60 l16 40 38 -95 c21 -52
37 -96 36 -98z"/>
<path d="M1790 1831 l0 -290 58 -3 c31 -2 90 -2 130 0 l72 4 0 52 0 53 -69 -2
c-38 -1 -73 0 -78 4 -4 3 -8 110 -8 236 l0 230 -53 3 -52 3 0 -290z"/>
<path d="M2470 1830 l0 -290 55 0 c45 0 55 3 56 18 1 9 1 64 1 122 1 58 4 107
8 110 5 3 48 5 97 5 l88 -1 1 -124 1 -125 56 -3 57 -3 0 291 0 290 -55 0 c-45
0 -55 -3 -56 -17 0 -10 -1 -59 -1 -109 l-1 -92 -96 2 -96 1 0 108 0 107 -57 0
-58 0 0 -290z"/>
<path d="M3072 1958 l82 -163 0 -125 1 -125 49 -3 c27 -2 52 1 55 7 4 6 6 61
5 123 l-1 113 84 168 83 167 -59 0 c-53 0 -60 -2 -67 -22 -4 -13 -9 -25 -13
-28 -3 -3 -19 -33 -36 -68 -16 -35 -34 -67 -40 -72 -7 -6 -27 24 -60 91 l-49
99 -58 0 -58 0 82 -162z"/>
<path d="M2216 1378 c-48 -44 -39 -87 35 -158 39 -38 59 -65 57 -77 -5 -26
-50 -29 -72 -4 -14 16 -23 18 -37 10 -46 -24 -6 -76 66 -86 40 -5 47 -3 74 25
53 53 42 96 -48 180 -46 43 -53 54 -41 62 22 14 36 12 55 -6 15 -15 17 -15 35
1 27 24 25 32 -12 55 -43 26 -81 25 -112 -2z"/>
<path d="M2695 1378 c-47 -27 -85 -94 -85 -148 1 -48 32 -113 67 -138 35 -25
91 -36 132 -27 32 7 110 74 113 97 7 68 3 117 -13 150 -40 79 -138 110 -214
66z m102 -44 c35 -7 73 -58 73 -98 0 -89 -79 -141 -150 -99 -67 39 -68 145 -2
186 30 18 37 19 79 11z"/>
<path d="M2478 1382 c-68 -3 -68 -3 -68 -32 0 -26 4 -30 29 -30 l29 0 0 -102
c0 -169 -2 -158 32 -158 l30 0 0 130 0 130 30 0 c26 0 30 3 30 29 0 34 -12 37
-112 33z"/>
<path d="M3333 1382 l-83 -3 0 -159 0 -160 90 0 90 0 0 30 c0 30 0 30 -59 30
l-60 0 1 33 c1 47 12 55 68 52 49 -3 50 -2 50 26 0 16 -6 29 -12 30 -7 1 -33
2 -58 3 -41 1 -45 3 -48 29 -3 25 -1 27 35 28 21 1 48 0 61 -1 18 -1 22 4 22
29 0 16 -3 31 -7 33 -5 2 -45 2 -90 0z"/>
<path d="M3010 1220 l0 -160 30 0 c29 0 29 0 32 68 l3 67 28 -55 c33 -64 59
-90 86 -83 19 5 18 9 -15 71 -40 77 -40 79 -15 87 34 11 44 88 17 130 -16 24
-54 35 -122 35 l-44 0 0 -160z m119 86 c13 -15 5 -46 -13 -47 -6 0 -19 -2 -28
-4 -14 -3 -18 4 -18 31 0 29 3 34 24 34 13 0 29 -6 35 -14z"/>
</g>
</svg>
