<svg xmlns="http://www.w3.org/2000/svg" width="191.891" height="97.774" viewBox="0 0 191.891 97.774"><g transform="translate(-576.45 -279.257)"><path d="M760.4,295.559a30.529,30.529,0,0,0-19.251-6.2c-7.6,0-13.943,2.072-19.175,6.2-.614.48-1,.781-1.211.991-5.443-4.821-12.213-7.193-20.367-7.193a31.35,31.35,0,0,0-16.405,4.265c-.692.45-1.365.886-2.038,1.367-4.116-3.769-9.288-5.632-15.482-5.632a24.377,24.377,0,0,0-6.77.916,20.193,20.193,0,0,1,9.77,5.857,13.929,13.929,0,0,1,3.27,5.858,2.217,2.217,0,0,1,.1.345,12.264,12.264,0,0,1,.347,2.928v18.456c0,8.426,5.558,12.8,9.519,14.838a19.5,19.5,0,0,0,3.924,1.532.067.067,0,0,0,.039.016,6.255,6.255,0,0,0,.114-1.232V310.547a9.394,9.394,0,0,1,3.905-7.524,15.771,15.771,0,0,1,9.712-3.049,15.291,15.291,0,0,1,9.616,3.049,9.212,9.212,0,0,1,3.982,7.524v28.322c0,3.589,2.269,5.332,6.77,5.332a7,7,0,0,0,5.847-2.568,4.557,4.557,0,0,0,.98-2.764c0-.09,0-.2-.058-.24h.058V310.547a9.328,9.328,0,0,1,3.943-7.524,16.688,16.688,0,0,1,19.232,0,9.214,9.214,0,0,1,3.98,7.524v28.322c0,3.589,2.269,5.332,6.77,5.332,4.558,0,6.827-1.743,6.827-5.332V310.547C768.34,304.674,765.686,299.644,760.4,295.559Z" fill="#fff"/><path d="M670.043,337.124a12.824,12.824,0,0,1-3.147-4.334,10.472,10.472,0,0,1-.874-4.64v-17.7a17,17,0,0,0-2.186-8.5h-.029a20.833,20.833,0,0,0-5.654-6.474,30.8,30.8,0,0,0-19.263-6.14h-.058c-.816,0-1.631.028-2.419.083-.2.028-.466.028-.7.057-.642.055-1.253.111-1.865.222-.175.028-.379.028-.553.055-.729.111-1.486.25-2.215.417l-.612.166c-.553.139-1.108.25-1.633.417-.233.083-.466.166-.67.222-.67.222-1.341.473-1.952.722-.234.083-.408.166-.612.251-.263.111-.525.25-.786.361a9.489,9.489,0,0,1,.523,3.139,10.313,10.313,0,0,1-10.549,10.084,11.82,11.82,0,0,1-2.244-.222l-.088.25c-.058.251-.145.5-.2.779-.086.444-.174.861-.233,1.333a4.826,4.826,0,0,0-.116.694c-.058.694-.116,1.389-.116,2.083v12.418c0,5.89,2.623,10.918,7.869,15.029a28.041,28.041,0,0,0,4.02,2.611,29.647,29.647,0,0,0,8.626,2.945,35.974,35.974,0,0,0,6.586.583,33.249,33.249,0,0,0,10.346-1.529,28.862,28.862,0,0,0,8.013-3.972c.35.306.7.639,1.079.917,3.934,3.055,10.374,4.583,16.057,4.583a36.61,36.61,0,0,0,7.955-1.028C680.1,342.541,674.122,341.041,670.043,337.124ZM652.47,322.872c0,.055-.029.111-.029.166v.112a9.034,9.034,0,0,1-3.205,6.694c-.2.194-.437.389-.671.583a16.8,16.8,0,0,1-19.321,0,9.278,9.278,0,0,1-3.905-7.556V310.454a9.242,9.242,0,0,1,3.905-7.473,16.8,16.8,0,0,1,19.321,0,9.318,9.318,0,0,1,3.905,7.473Z" fill="#fff"/><path d="M604.448,290.759H590.81v-6.167c0-3.39,2.477-5.334,6.79-5.334,4.43,0,6.849,1.889,6.849,5.334Z" fill="#fff"/><path d="M620.767,343.013a36.6,36.6,0,0,1-7.955,1.028c-5.683,0-12.123-1.529-16.057-4.583-.379-.278-.729-.611-1.078-.917a14.464,14.464,0,0,1-3.235-3.667,11.332,11.332,0,0,1-1.631-6.723V301.315h13.638V328.15a8.116,8.116,0,0,0,.058.862h-.058a10.544,10.544,0,0,0,.874,3.778,12.826,12.826,0,0,0,2.36,3.556c.03.028.088.055.088.111a4.59,4.59,0,0,1,.379.361,3.424,3.424,0,0,1,.321.306,19.241,19.241,0,0,0,4.516,3.139A29.808,29.808,0,0,0,620.767,343.013Z" fill="#fff"/><path d="M619.464,296.009c0,3.418-2.39,5.307-6.762,5.307H583.21c-4.284,0-6.761-1.918-6.761-5.251,0-3.416,2.419-5.305,6.761-5.305H612.7c3.614,0,5.917,1.333,6.558,3.723A5.124,5.124,0,0,1,619.464,296.009Z" fill="#ffbe00"/><text transform="translate(679.825 371.031)" fill="#fff" font-size="22" font-family="SegoeUI, Segoe UI"><tspan x="-64.555" y="0">خـصـومـات تـمـ</tspan></text></g></svg>